<?xml version="1.0" encoding="iso-8859-1"?>
<!-- Generator: Adobe Illustrator 19.0.0, SVG Export Plug-In . SVG Version: 6.00 Build 0)  -->
<svg version="1.1" id="Capa_1" xmlns="http://www.w3.org/2000/svg" xmlns:xlink="http://www.w3.org/1999/xlink" x="0px" y="0px"
	 viewBox="0 0 489.901 489.901" style="enable-background:new 0 0 489.901 489.901;" xml:space="preserve">
<g>
	<g>
		<path d="M469.2,448.9H41.6V21.3c0-11.4-9.4-20.8-20.8-20.8S0,9.9,0,21.3v447.3c0,11.4,9.4,20.8,20.8,20.8h447.3
			c11.4,0,21.8-8.3,21.8-19.8C490,458.3,480.6,448.9,469.2,448.9z"/>
		<path d="M168.5,241.9c6.2,9.4,17.7,12.5,27,7.3l101-55.2l64.1,83.2H284c-11.4,0-20.8,9.4-20.8,20.8s9.4,20.8,20.8,20.8h124.8
			c11.4,0,20.8-8.3,21.8-20.8V173.2c0-11.4-9.4-20.8-20.8-20.8s-20.8,9.4-20.8,20.8V246l-69.7-90.5c-6.2-7.3-17.7-10.4-26-5.2
			l-99.9,54.1L124.7,94.1c-6.2-9.4-18.7-12.5-28.1-6.2c-9.4,6.2-12.5,18.7-6.2,28.1L168.5,241.9z"/>
	</g>
</g>
<g>
</g>
<g>
</g>
<g>
</g>
<g>
</g>
<g>
</g>
<g>
</g>
<g>
</g>
<g>
</g>
<g>
</g>
<g>
</g>
<g>
</g>
<g>
</g>
<g>
</g>
<g>
</g>
<g>
</g>
</svg>
